<svg width="45" height="45" viewBox="0 0 45 45" fill="none" xmlns="http://www.w3.org/2000/svg">
<path d="M17.0567 33.3611H27.4411H17.0567ZM22.25 2.25V4.47222V2.25ZM36.3922 8.10778L34.8211 9.67889L36.3922 8.10778ZM42.25 22.25H40.0278H42.25ZM4.47222 22.25H2.25H4.47222ZM9.67889 9.67889L8.10778 8.10778L9.67889 9.67889ZM14.3922 30.1078C12.8386 28.5537 11.7807 26.5739 11.3522 24.4187C10.9237 22.2634 11.1439 20.0295 11.985 17.9994C12.826 15.9692 14.2502 14.2341 16.0773 13.0133C17.9045 11.7925 20.0526 11.141 22.25 11.141C24.4474 11.141 26.5955 11.7925 28.4227 13.0133C30.2498 14.2341 31.674 15.9692 32.5151 17.9994C33.3561 20.0295 33.5763 22.2634 33.1478 24.4187C32.7193 26.5739 31.6614 28.5537 30.1078 30.1078L28.89 31.3233C28.1938 32.0197 27.6416 32.8463 27.2649 33.7561C26.8881 34.6658 26.6943 35.6409 26.6944 36.6256V37.8056C26.6944 38.9843 26.2262 40.1148 25.3927 40.9483C24.5592 41.7817 23.4287 42.25 22.25 42.25C21.0713 42.25 19.9408 41.7817 19.1073 40.9483C18.2738 40.1148 17.8056 38.9843 17.8056 37.8056V36.6256C17.8056 34.6367 17.0144 32.7278 15.61 31.3233L14.3922 30.1078Z" stroke="currentColor" stroke-width="4.16667" stroke-linecap="round" stroke-linejoin="round"/>
</svg>
