<svg width="42" height="38" viewBox="0 0 42 38" fill="none" xmlns="http://www.w3.org/2000/svg">
<path d="M0 37.5V25H3.125C2.43717 22.9879 2.08524 20.8764 2.08333 18.75C2.08333 13.7772 4.05877 9.00805 7.57508 5.49175C11.0914 1.97544 15.8605 0 20.8333 0H41.6667V12.5H38.5417C39.2083 14.4583 39.5833 16.5625 39.5833 18.75C39.5833 23.7228 37.6079 28.4919 34.0916 32.0083C30.5753 35.5246 25.8061 37.5 20.8333 37.5H0ZM6.25 18.75C6.25 21.4167 6.95833 23.8958 8.20833 26.0417L15.4167 21.875C14.8958 20.9583 14.5833 19.8958 14.5833 18.75C14.5833 17.3958 15.0208 16.1458 15.75 15.125L8.95833 10.2708C7.29167 12.6667 6.25 15.625 6.25 18.75ZM20.8333 33.3333C26.2292 33.3333 30.9375 30.3958 33.4583 26.0417L26.25 21.875C25.1667 23.75 23.1458 25 20.8333 25H20.2292L19.4375 33.2708L20.8333 33.3333ZM20.8333 12.5C23.3542 12.5 25.5417 14 26.5208 16.1667L34.1042 12.7083C32.9461 10.1604 31.0787 7.99995 28.7253 6.4852C26.3719 4.97046 23.6321 4.16553 20.8333 4.16667V12.5ZM20.8333 16.6667C19.6875 16.6667 18.75 17.6042 18.75 18.75C18.75 19.8958 19.6875 20.8333 20.8333 20.8333C21.9792 20.8333 22.9167 19.8958 22.9167 18.75C22.9167 17.6042 21.9792 16.6667 20.8333 16.6667Z" fill="currentColor"/>
</svg>
