<svg width="67" height="67" viewBox="0 0 67 67" fill="none" xmlns="http://www.w3.org/2000/svg">
<g clip-path="url(#clip0_134_628)">
<rect width="67" height="67" rx="10" fill="#FF7A50"/>
<path fill-rule="evenodd" clip-rule="evenodd" d="M25.125 36.2917V30.7084H19.5417V36.2917H25.125ZM58.625 38.3692V16.75C58.625 13.6792 56.1125 11.1667 53.0417 11.1667H50.25V5.58337H44.6667V11.1667H22.3333V5.58337H16.75V11.1667H13.9583C10.8596 11.1667 8.40292 13.6792 8.40292 16.75L8.375 55.8334C8.375 58.9042 10.8596 61.4167 13.9583 61.4167H53.0417C56.1125 61.4167 58.625 58.9042 58.625 55.8334V53.1975L53.0417 49.974V55.8334H13.9583V27.9167H53.0417V41.5928L58.625 38.3692ZM53.0417 22.3334H13.9583V16.75H53.0417V22.3334ZM47.4583 36.2917H41.875V30.7084H47.4583V36.2917ZM36.2917 36.2917H30.7083V30.7084H36.2917V36.2917Z" fill="#F8F8F8"/>
<path d="M49 46L59 51.7735V40.2265L49 46ZM58 47H63V45H58V47Z" fill="#F8F8F8"/>
</g>
<defs>
<clipPath id="clip0_134_628">
<rect width="67" height="67" fill="white"/>
</clipPath>
</defs>
</svg>
