<svg width="41" height="39" viewBox="0 0 41 39" fill="none" xmlns="http://www.w3.org/2000/svg">
<path d="M40.1291 23.4688C39.6654 21.7339 38.796 20.1341 37.5924 18.8014C36.3888 17.4686 34.8857 16.4411 33.2069 15.8036C31.5281 15.166 29.7219 14.9367 27.937 15.1345C26.1522 15.3324 24.44 15.9517 22.9416 16.9414C22.8068 16.8614 22.6662 16.7852 22.5236 16.7168L25.8166 3.56839C25.8763 3.33038 25.8598 3.07963 25.7694 2.85151C25.679 2.62339 25.5192 2.4294 25.3127 2.2969C24.0172 1.4704 22.567 0.916129 21.0505 0.667805C19.534 0.419481 17.9828 0.482301 16.4914 0.852443C14.9999 1.22258 13.5994 1.89231 12.3749 2.82086C11.1505 3.74942 10.1278 4.91739 9.36902 6.2537C8.61027 7.59002 8.13133 9.06674 7.96135 10.594C7.79137 12.1213 7.93391 13.6672 8.38029 15.1376C8.82666 16.6081 9.56755 17.9723 10.5579 19.1474C11.5482 20.3224 12.7672 21.2837 14.1408 21.9727V22C14.1408 22.1504 14.1408 22.3008 14.1603 22.4493L1.12713 26.1719C0.890331 26.2384 0.680472 26.3778 0.527285 26.5703C0.374099 26.7627 0.285351 26.9985 0.273615 27.2442C0.216146 28.7735 0.469165 30.2987 1.0174 31.7275C1.56564 33.1564 2.39772 34.4594 3.46342 35.5578C4.52913 36.6562 5.80635 37.5273 7.218 38.1184C8.62965 38.7096 10.1464 39.0086 11.6768 38.9974C13.2072 38.9861 14.7195 38.6649 16.1223 38.0531C17.5251 37.4413 18.7894 36.5516 19.8389 35.4377C20.8884 34.3237 21.7013 33.0087 22.2285 31.572C22.7557 30.1352 22.9863 28.6065 22.9064 27.0782C23.0431 27 23.1779 26.916 23.3088 26.8262L33.049 36.2578C33.2259 36.4284 33.452 36.5391 33.6952 36.5741C33.9385 36.6092 34.1866 36.5668 34.4045 36.4532C36.6961 35.2643 38.5128 33.3283 39.5539 30.9659C40.595 28.6035 40.7979 25.9564 40.1291 23.4629V23.4688ZM16.4846 22C16.4846 21.3047 16.6907 20.625 17.077 20.0469C17.4633 19.4687 18.0124 19.0181 18.6548 18.752C19.2972 18.4859 20.0041 18.4163 20.686 18.552C21.368 18.6876 21.9944 19.0224 22.4861 19.5141C22.9778 20.0058 23.3126 20.6322 23.4482 21.3142C23.5839 21.9961 23.5143 22.703 23.2482 23.3454C22.9821 23.9878 22.5315 24.5369 21.9534 24.9232C21.3752 25.3095 20.6955 25.5157 20.0002 25.5157C19.0678 25.5157 18.1736 25.1453 17.5143 24.486C16.8549 23.8266 16.4846 22.9324 16.4846 22ZM10.2346 11.8438C10.2341 10.3027 10.63 8.78734 11.3843 7.44345C12.1387 6.09956 13.226 4.9723 14.5418 4.17002C15.8576 3.36774 17.3577 2.91742 18.8978 2.86234C20.4379 2.80725 21.9663 3.14927 23.3361 3.8555L20.258 16.1407H20.0002C18.8729 16.1412 17.7698 16.4669 16.823 17.0787C15.8762 17.6905 15.126 18.5624 14.6623 19.5899C13.3114 18.7986 12.1917 17.6669 11.4148 16.3077C10.6378 14.9485 10.2309 13.4093 10.2346 11.8438ZM16.0939 35.5352C14.7594 36.308 13.2483 36.7243 11.7063 36.7439C10.1642 36.7636 8.64309 36.386 7.28925 35.6474C5.93542 34.9089 4.79447 33.8343 3.97624 32.5271C3.15801 31.2199 2.69004 29.7241 2.61736 28.1836L14.8029 24.7032C15.2975 25.6544 16.0437 26.4517 16.9601 27.0082C17.8765 27.5648 18.928 27.8592 20.0002 27.8594C20.1959 27.8597 20.3914 27.8499 20.5861 27.8301C20.5758 29.395 20.1557 30.9298 19.3675 32.2817C18.5793 33.6336 17.4506 34.7553 16.0939 35.5352ZM36.9728 30.8946C36.2555 32.1363 35.2509 33.1878 34.0431 33.961L24.9357 25.1485C25.5673 24.1619 25.8877 23.0083 25.8553 21.8373C25.8229 20.6664 25.4392 19.5322 24.7541 18.5821C26.469 17.6109 28.4557 17.2306 30.4081 17.4997C32.3604 17.7689 34.1701 18.6725 35.5584 20.0714C36.9466 21.4703 37.8364 23.2868 38.0905 25.2412C38.3447 27.1956 37.9492 29.1793 36.965 30.8868L36.9728 30.8946Z" fill="currentColor"/>
</svg>
