<svg width="55" height="50" viewBox="0 0 55 50" fill="none" xmlns="http://www.w3.org/2000/svg">
<path d="M50.9475 28.125H40.8179C39.9227 28.1242 39.0644 27.7947 38.4314 27.2088C37.7983 26.6229 37.4423 25.8285 37.4414 25V9.375C37.4423 8.54645 37.7983 7.75208 38.4314 7.16621C39.0644 6.58033 39.9227 6.25083 40.8179 6.25H50.9475V9.375H40.8179V25H50.9475V28.125Z" fill="currentColor"/>
<path d="M30.6885 9.375C32.5533 9.375 34.0651 7.97589 34.0651 6.25C34.0651 4.52411 32.5533 3.125 30.6885 3.125C28.8237 3.125 27.312 4.52411 27.312 6.25C27.312 7.97589 28.8237 9.375 30.6885 9.375Z" fill="currentColor"/>
<path d="M17.1823 31.5375V18.75H13.8057V31.5375C12.6793 31.9061 11.7299 32.6314 11.1254 33.5851C10.5209 34.5389 10.3001 35.6597 10.5021 36.7496C10.7042 37.8394 11.316 38.8281 12.2295 39.5408C13.1429 40.2535 14.2992 40.6444 15.494 40.6444C16.6888 40.6444 17.8451 40.2535 18.7585 39.5408C19.672 38.8281 20.2838 37.8394 20.4858 36.7496C20.6879 35.6597 20.4671 34.5389 19.8626 33.5851C19.2581 32.6314 18.3087 31.9061 17.1823 31.5375V31.5375Z" fill="currentColor"/>
<path d="M15.4941 46.875C13.1676 46.8774 10.8923 46.2436 8.95368 45.0532C7.0151 43.8628 5.49975 42.1688 4.59792 40.184C3.69608 38.1992 3.44797 36.012 3.88472 33.8972C4.32148 31.7823 5.42364 29.834 7.0528 28.2969V10.9375C7.0528 8.8655 7.94215 6.87836 9.5252 5.41323C11.1083 3.9481 13.2553 3.125 15.4941 3.125C17.7329 3.125 19.88 3.9481 21.463 5.41323C23.0461 6.87836 23.9354 8.8655 23.9354 10.9375V28.2969C25.5646 29.834 26.6667 31.7823 27.1035 33.8972C27.5403 36.012 27.2921 38.1992 26.3903 40.184C25.4885 42.1688 23.9731 43.8628 22.0345 45.0532C20.096 46.2436 17.8206 46.8774 15.4941 46.875ZM15.4941 6.25C14.1513 6.25124 12.8638 6.7455 11.9142 7.62431C10.9647 8.50312 10.4307 9.69468 10.4293 10.9375V29.6609L9.86882 30.1281C8.59398 31.1827 7.69521 32.5707 7.29149 34.1084C6.88776 35.6461 6.99811 37.2611 7.60793 38.7394C8.21775 40.2178 9.29829 41.49 10.7065 42.3875C12.1148 43.285 13.7843 43.7656 15.4941 43.7656C17.2039 43.7656 18.8735 43.285 20.2817 42.3875C21.6899 41.49 22.7705 40.2178 23.3803 38.7394C23.9901 37.2611 24.1005 35.6461 23.6967 34.1084C23.293 32.5707 22.3942 31.1827 21.1194 30.1281L20.5589 29.6609V10.9375C20.5576 9.69468 20.0235 8.50312 19.074 7.62431C18.1244 6.7455 16.837 6.25124 15.4941 6.25V6.25Z" fill="currentColor"/>
</svg>
